HIERARCHY
ROOT Hips
{
	OFFSET -80.168388 91.772041 -268.984589
	CHANNELS 6 Xposition Yposition Zposition Xrotation Yrotation Zrotation 
	JOINT RightUpLeg
	{
		OFFSET 0.103457 1.857818 10.548502
		CHANNELS 3 Xrotation Yrotation Zrotation
		JOINT RightLeg
		{
			OFFSET 43.500000 -0.000011 -0.000004
			CHANNELS 3 Xrotation Yrotation Zrotation
			JOINT RightFoot
			{
				OFFSET 42.372192 -0.000004 -0.000008
				CHANNELS 3 Xrotation Yrotation Zrotation
				JOINT RightToe
				{
					OFFSET 17.300014 0.000006 0.000001
					CHANNELS 3 Xrotation Yrotation Zrotation
					End Site
					{
						OFFSET 0.000000 0.000000 0.000000
					}
				}
			}
		}
	}
	JOINT LeftUpLeg
	{
		OFFSET 0.103457 1.857817 -10.548505
		CHANNELS 3 Xrotation Yrotation Zrotation
		JOINT LeftLeg
		{
			OFFSET 43.500046 -0.000004 0.000011
			CHANNELS 3 Xrotation Yrotation Zrotation
			JOINT LeftFoot
			{
				OFFSET 42.372257 0.000000 0.000015
				CHANNELS 3 Xrotation Yrotation Zrotation
				JOINT LeftToe
				{
					OFFSET 17.300003 -0.000000 0.000002
					CHANNELS 3 Xrotation Yrotation Zrotation
					End Site
					{
						OFFSET 0.000000 0.000000 0.000000
					}
				}
			}
		}
	}
	JOINT Spine
	{
		OFFSET 6.901961 -2.603721 -0.000001
		CHANNELS 3 Xrotation Yrotation Zrotation
		JOINT Spine1
		{
			OFFSET 12.588108 0.000002 -0.000001
			CHANNELS 3 Xrotation Yrotation Zrotation
			JOINT Spine2
			{
				OFFSET 12.343199 -0.000020 0.000006
				CHANNELS 3 Xrotation Yrotation Zrotation
				JOINT Neck
				{
					OFFSET 25.832905 0.000017 0.000000
					CHANNELS 3 Xrotation Yrotation Zrotation
					JOINT Head
					{
						OFFSET 11.766604 -0.000006 0.000004
						CHANNELS 3 Xrotation Yrotation Zrotation
						End Site
						{
							OFFSET 0.000000 0.000000 0.000000
						}
					}
				}
				JOINT RightShoulder
				{
					OFFSET 19.745903 -1.480350 6.000100
					CHANNELS 3 Xrotation Yrotation Zrotation
					JOINT RightArm
					{
						OFFSET 11.284130 -0.000016 -0.000016
						CHANNELS 3 Xrotation Yrotation Zrotation
						JOINT RightForeArm
						{
							OFFSET 33.000046 0.000004 0.000031
							CHANNELS 3 Xrotation Yrotation Zrotation
							JOINT RightHand
							{
								OFFSET 25.199999 0.000027 0.000001
								CHANNELS 3 Xrotation Yrotation Zrotation
								End Site
								{
									OFFSET 0.000000 0.000000 0.000000
								}
							}
						}
					}
				}
				JOINT LeftShoulder
				{
					OFFSET 19.746094 -1.480375 -6.000080
					CHANNELS 3 Xrotation Yrotation Zrotation
					JOINT LeftArm
					{
						OFFSET 11.284131 -0.000016 -0.000017
						CHANNELS 3 Xrotation Yrotation Zrotation
						JOINT LeftForeArm
						{
							OFFSET 33.000095 0.000009 0.000020
							CHANNELS 3 Xrotation Yrotation Zrotation
							JOINT LeftHand
							{
								OFFSET 25.199789 0.000132 0.000423
								CHANNELS 3 Xrotation Yrotation Zrotation
								End Site
								{
									OFFSET 0.000000 0.000000 0.000000
								}
							}
						}
					}
				}
			}
		}
	}
}
MOTION
Frames: 15
Frame Time: 0.033333
-48.807919 89.107811 324.903198 85.257748 -6.616697 -78.456129 176.496910 -3.798989 178.249810 -26.319700 -5.216189 -2.825345 82.833993 1.377177 -3.312137 21.454562 0.003109 0.000018 170.263475 11.551194 -178.790611 -50.764213 0.775794 -1.219227 72.598798 3.250845 7.484167 21.454550 -0.003082 -0.000002 8.097131 -1.313616 0.125944 6.180948 -2.631983 0.181878 5.862490 -2.630976 0.197776 13.343172 4.469460 0.428653 0.554220 -14.333608 3.559431 -146.567964 -80.949981 -35.431893 8.390798 60.756192 21.634406 -28.870209 -13.555259 1.141715 10.107678 -3.658564 28.299063 160.406419 88.112077 -17.947944 -4.562148 -53.861666 -24.959736 -53.909437 6.869902 -1.332628 4.012221 5.117596 -36.638634 
-49.429230 89.129570 324.040497 85.114156 -6.575001 -79.726380 178.328958 -3.139394 179.148076 -24.223102 -5.668878 -4.177902 82.916509 2.275614 -3.512460 21.454557 0.003105 0.000017 164.612176 13.036003 -178.476477 -59.552201 0.315061 -2.165146 68.160097 4.412379 7.777312 21.454553 -0.003089 -0.000001 8.137341 -1.391457 0.119571 6.261664 -2.787237 0.164021 5.943168 -2.786334 0.180846 12.948673 4.001051 0.826985 0.503985 -14.328647 3.961528 -147.677200 -80.826259 -34.312292 3.948883 61.023123 19.831582 -32.118189 -13.787888 1.220685 9.199834 -5.206544 25.614722 144.395854 87.705435 -34.021241 -7.177311 -55.546633 -23.895540 -51.216901 7.684561 -1.299599 4.047033 4.145869 -38.641044 
-49.973171 89.181732 323.032593 85.147980 -6.779418 -80.275500 -179.469040 -2.877188 -179.464190 -21.698743 -6.281685 -5.373370 82.744859 3.104866 -3.513644 21.454557 0.003122 0.000018 160.093118 13.923711 -178.024646 -65.856486 0.433747 -1.790679 65.967087 3.380440 5.377275 21.454551 -0.003095 -0.000002 8.252923 -1.427667 -0.006876 6.496149 -2.852618 -0.093652 6.177626 -2.853267 -0.076406 12.507701 3.987340 1.168845 0.266934 -14.511054 4.394873 -150.160398 -81.018543 -31.790183 -0.429895 60.482391 17.281610 -35.857052 -13.801615 1.304481 8.245298 -3.762238 21.909524 139.352675 87.324167 -39.103052 -9.287129 -57.353665 -22.694992 -49.631488 8.553028 -1.307931 3.453255 2.563415 -43.460193 
-50.400219 89.212097 321.935699 85.398197 -7.011970 -80.251513 -177.345124 -3.016702 -178.105625 -19.235237 -6.770897 -6.220054 82.472417 3.706117 -3.430390 21.454562 0.003109 0.000016 156.860690 14.494602 -177.402921 -69.194072 1.086306 -0.672667 68.758196 2.572759 5.913309 21.454560 -0.003093 -0.000004 8.395625 -1.399453 -0.171307 6.785557 -2.786400 -0.424276 6.467060 -2.789059 -0.407422 12.243564 4.215960 1.349839 -0.053133 -14.780237 4.702950 -154.957581 -81.540328 -26.917106 -4.319904 59.602498 14.146895 -40.023669 -13.750956 1.404740 7.139833 -0.878023 19.443725 148.253409 87.036213 -30.194381 -10.679454 -59.040982 -21.558213 -49.094153 9.575222 -1.359822 2.505474 1.051792 -50.509905 
-50.774830 89.315247 320.807190 86.048957 -7.104367 -80.052843 -175.603071 -3.584498 -177.608373 -17.201056 -6.874760 -6.461360 82.364486 3.896178 -3.323576 21.454558 0.003104 0.000017 154.677434 14.445205 -176.357602 -69.612892 2.030568 0.916671 71.227788 1.153906 5.667478 21.454557 -0.003099 -0.000000 8.502538 -1.258826 -0.340943 7.002143 -2.494711 -0.757396 6.683746 -2.499367 -0.742319 12.183034 4.431344 1.511473 -0.277054 -15.033176 4.968766 -160.136025 -82.131741 -21.663490 -7.358900 59.004201 10.978106 -44.588254 -13.783662 1.533233 6.049690 1.687262 19.294933 161.071761 86.725173 -17.342340 -11.285224 -60.798642 -20.132488 -49.126303 10.469690 -1.420692 1.466383 0.166626 -57.740630 
-51.065632 89.262688 319.655090 86.450059 -6.888935 -79.996480 -174.969270 -3.878208 -178.102551 -17.054327 -6.682258 -6.127393 83.095071 3.673000 -3.345178 21.454562 0.003109 0.000017 153.009447 14.234298 -175.265181 -67.632089 2.645222 2.775839 71.922042 -0.129401 6.060905 21.454550 -0.003095 0.000005 8.552423 -1.152764 -0.523786 7.104474 -2.271220 -1.117392 6.786173 -2.278063 -1.103660 12.161965 4.607057 1.755908 -0.325447 -15.207735 5.275417 -163.339220 -82.670649 -18.416413 -9.368107 58.931910 8.261702 -49.443856 -13.864077 1.686915 5.227431 2.797048 21.176177 169.684220 86.452928 -8.699102 -10.893495 -62.934463 -18.717046 -49.182894 11.461776 -1.488713 0.661078 0.203088 -62.030296 
-51.328388 89.276329 318.461914 86.989638 -6.574397 -80.234287 -174.816411 -4.160101 -178.741174 -17.762310 -6.280124 -5.860871 84.166912 3.465814 -3.561871 21.454558 0.003090 0.000015 152.455409 13.281799 -173.942269 -62.977343 2.747301 4.332068 73.254783 -1.172031 6.580561 21.454548 -0.003087 -0.000004 8.577183 -1.011483 -0.671733 7.154740 -1.979533 -1.404762 6.836544 -1.988126 -1.392777 12.115757 4.894034 2.037800 -0.330145 -15.277251 5.600817 -164.314038 -83.149371 -17.426884 -10.477306 59.346592 6.141283 -54.295667 -13.869704 1.848835 4.656860 2.376106 23.930621 174.150686 86.258534 -4.214411 -9.636949 -65.286534 -17.411839 -49.014981 12.352627 -1.542828 0.501581 1.116804 -61.541849 
-51.573132 89.253067 317.140411 87.542398 -6.345062 -80.803071 -174.435928 -4.355701 -179.002046 -18.410773 -5.876718 -6.031373 85.382077 3.537163 -3.945840 21.454562 0.003102 0.000015 153.492519 11.659200 -172.664081 -55.415357 2.618665 4.716736 75.174319 -1.694807 6.092054 21.454545 -0.003083 -0.000001 8.609988 -0.863037 -0.767418 7.219542 -1.676582 -1.587203 6.901414 -1.686262 -1.577069 12.254550 5.371265 2.304733 -0.537667 -15.244547 5.923485 -164.104065 -83.511336 -17.636235 -10.604091 59.949588 4.778004 -58.766435 -13.682061 1.995766 4.104529 1.149943 26.269546 176.482622 86.076687 -1.873425 -7.760860 -67.400477 -16.497340 -48.633911 12.960800 -1.571388 1.126251 2.234996 -56.926017 
-51.829010 89.282089 315.659088 88.101674 -6.248045 -81.471487 -173.421672 -4.622288 -178.891766 -18.239660 -5.753056 -6.509857 86.276334 3.842631 -4.243346 21.454558 0.003112 0.000018 156.370747 9.592900 -171.159213 -45.049769 2.469136 4.361979 74.956723 -1.482261 5.925618 21.454550 -0.003078 -0.000001 8.635555 -0.708894 -0.849486 7.269139 -1.363063 -1.741786 6.951111 -1.373698 -1.733536 12.825874 5.939457 2.547997 -0.938236 -15.081621 6.205883 -163.382319 -83.756281 -18.362907 -9.755606 60.511713 4.245194 -62.538790 -13.225715 2.106532 3.452060 -0.007651 27.382882 177.847567 85.931723 -0.503311 -5.599167 -69.142777 -16.053948 -48.102352 13.282414 -1.576251 2.162771 2.783496 -50.907398 
-52.065601 89.155357 313.981110 88.192789 -6.242569 -82.051534 -172.288844 -4.657699 -179.032154 -18.405772 -5.910213 -6.736669 87.290876 4.014345 -4.389362 21.454558 0.003103 0.000016 160.645353 7.775498 -169.403950 -33.595621 2.431886 3.169388 74.345824 -0.637144 5.786565 21.454551 -0.003088 0.000002 8.631039 -0.642737 -0.924522 7.259753 -1.226276 -1.887530 6.941771 -1.237792 -1.880106 13.796966 6.366164 2.701270 -1.274723 -14.708232 6.306560 -162.678604 -83.851555 -19.072422 -8.406692 60.702910 4.528593 -65.263646 -12.610232 2.170484 2.830456 -0.549847 27.107424 -179.622801 85.757574 2.039215 -3.130177 -70.367088 -16.556300 -47.422499 13.507558 -1.570312 3.087538 2.625763 -46.136668 
-52.242050 89.244003 312.364014 89.009748 -6.513411 -82.792514 -171.162778 -5.390899 -179.991426 -18.924057 -5.802930 -6.627922 88.031125 3.978403 -4.353138 21.454558 0.003093 0.000015 163.874502 5.588197 -168.436891 -27.225149 2.301915 2.423374 69.810264 -1.613630 0.606992 21.454551 -0.003088 0.000001 8.657191 -0.395019 -0.866610 7.307339 -0.734602 -1.756410 6.989375 -0.745331 -1.751949 14.866849 6.515780 2.694194 -1.572435 -14.231596 6.187642 -162.669848 -83.479679 -19.085082 -7.837598 60.429907 4.800908 -66.560672 -12.172994 2.191904 2.360593 -0.353171 25.954456 -174.090976 85.274406 7.603539 -2.182263 -70.593502 -16.908661 -46.079912 13.748898 -1.545788 3.586858 2.352670 -43.365978 
-52.364689 89.202408 310.800507 90.266783 -7.021852 -83.827745 -171.143066 -6.173498 178.064302 -22.070522 -4.620426 -6.284786 89.144289 3.660663 -5.007093 21.454560 0.003118 0.000018 165.022548 3.307997 -169.532221 -27.120371 1.365748 3.147756 70.392558 -2.270715 0.165233 21.454551 -0.003095 -0.000001 8.774901 0.015312 -0.728880 7.536456 0.078014 -1.455211 7.218472 0.069089 -1.455658 15.746455 6.535907 2.579150 -2.092330 -13.935603 6.026747 -163.047380 -82.427256 -18.713900 -7.989101 60.068802 4.842803 -66.230186 -12.228170 2.182543 2.026028 0.137644 24.735805 -168.573522 84.400627 13.162191 -4.924653 -69.529611 -15.522107 -42.958106 13.849454 -1.462369 3.765783 2.647117 -41.460901 
-52.533630 89.092819 309.274902 91.040035 -7.351542 -84.662654 -173.308059 -6.359217 176.160237 -28.837059 -2.588995 -5.727237 88.371330 2.980193 -6.451213 21.454562 0.003111 0.000016 165.468463 2.592401 -171.768138 -28.448793 2.298524 3.848151 71.319906 -2.611102 0.700909 21.454553 -0.003086 0.000001 8.922662 0.383744 -0.722673 7.827602 0.815451 -1.417799 7.509592 0.806716 -1.422692 16.349357 6.768958 2.399408 -2.743452 -13.822511 5.875155 -163.558988 -81.282400 -18.206424 -7.900490 60.475588 5.082607 -64.238189 -12.832778 2.145488 1.876686 0.118555 23.791827 -166.244537 83.491235 15.515680 -11.142830 -67.703608 -12.001587 -37.583956 13.442973 -1.295104 4.431151 3.415210 -39.282781 
-52.757820 89.018860 307.884705 91.791950 -7.244905 -84.793185 -177.300100 -6.678409 175.453613 -37.254676 -0.588518 -5.373049 84.781116 2.397035 -6.980672 21.454553 0.003116 0.000016 166.006969 2.383190 -172.961481 -28.948118 3.638538 4.265256 72.318214 -2.880463 0.882561 21.454553 -0.003108 -0.000001 8.973544 0.743631 -0.868426 7.923565 1.544930 -1.684081 7.605515 1.534599 -1.693395 16.745414 7.441235 2.047618 -3.181035 -13.578956 5.505295 -165.157799 -80.985348 -16.587905 -7.172610 62.034592 6.072994 -60.599207 -13.743501 2.068094 2.163704 -0.707340 22.865721 -166.072334 82.724704 15.693370 -17.760186 -65.886990 -7.767803 -31.408137 12.512427 -1.097106 6.559929 3.682041 -37.834856 
-53.009209 89.110893 306.540985 92.553312 -6.934246 -84.693103 177.390026 -7.370197 175.523581 -46.708911 0.484804 -5.531731 78.812043 2.376844 -6.059190 21.454557 0.003107 0.000019 166.882599 2.021301 -173.047378 -28.377151 4.253234 4.288722 72.816114 -2.849798 1.071960 21.454555 -0.003089 -0.000003 8.937482 1.063776 -0.958339 7.845925 2.189999 -1.842774 7.527757 2.178688 -1.855965 16.982734 8.396964 1.469435 -3.415929 -13.086453 4.825450 -168.651386 -81.542719 -13.044732 -6.519194 64.137990 7.638201 -55.655424 -14.499068 1.938710 3.136467 -1.500993 22.041698 -165.958625 81.902602 15.812491 -22.055663 -64.354712 -4.622430 -26.940027 11.740106 -0.964611 9.907604 2.822148 -39.853788 
